<svg width="83" height="32" viewBox="0 0 83 32" fill="none" xmlns="http://www.w3.org/2000/svg">
<path d="M27.3333 9.7037L16 16M16 16L4.66662 9.7037M16 16L16 28.6667M28 21.4114V10.5886C28 10.1318 28 9.90334 27.9327 9.69961C27.8731 9.51937 27.7758 9.35393 27.6472 9.21434C27.5018 9.05656 27.3021 8.94563 26.9027 8.72376L17.036 3.24227C16.6579 3.0322 16.4688 2.92716 16.2686 2.88598C16.0914 2.84953 15.9086 2.84953 15.7314 2.88598C15.5312 2.92716 15.3421 3.0322 14.964 3.24228L5.09729 8.72376C4.69793 8.94563 4.49825 9.05656 4.35284 9.21435C4.22421 9.35393 4.12686 9.51938 4.06731 9.69961C4 9.90334 4 10.1318 4 10.5886V21.4114C4 21.8683 4 22.0967 4.06731 22.3005C4.12686 22.4807 4.22421 22.6461 4.35284 22.7857C4.49825 22.9435 4.69793 23.0544 5.0973 23.2763L14.964 28.7578C15.3421 28.9679 15.5312 29.0729 15.7314 29.1141C15.9086 29.1505 16.0914 29.1505 16.2686 29.1141C16.4688 29.0729 16.6579 28.9679 17.036 28.7578L26.9027 23.2763C27.3021 23.0544 27.5018 22.9435 27.6472 22.7857C27.7758 22.6461 27.8731 22.4807 27.9327 22.3005C28 22.0967 28 21.8683 28 21.4114Z" stroke="black" stroke-width="2" stroke-linecap="round" stroke-linejoin="round"/>
<path d="M38.8487 11.3182V21.5H37.0043V11.3182H38.8487ZM42.5662 17.0256V21.5H40.7665V13.8636H42.4867V15.1612H42.5762C42.7518 14.7337 43.0319 14.3939 43.4164 14.142C43.8042 13.8902 44.2831 13.7642 44.8532 13.7642C45.3801 13.7642 45.8392 13.8769 46.2303 14.1023C46.6247 14.3277 46.9296 14.6541 47.1451 15.0817C47.3638 15.5092 47.4715 16.0279 47.4682 16.6378V21.5H45.6685V16.9162C45.6685 16.4058 45.5359 16.0064 45.2708 15.718C45.0089 15.4297 44.646 15.2855 44.182 15.2855C43.8671 15.2855 43.5871 15.3551 43.3418 15.4943C43.0998 15.6302 42.9093 15.8274 42.7701 16.0859C42.6342 16.3445 42.5662 16.6577 42.5662 17.0256ZM52.6287 21.6491C51.8664 21.6491 51.2118 21.4818 50.665 21.147C50.1214 20.8123 49.7021 20.3499 49.4071 19.7599C49.1155 19.1667 48.9696 18.4839 48.9696 17.7116C48.9696 16.9361 49.1188 16.2517 49.4171 15.6584C49.7154 15.0618 50.1363 14.5978 50.6799 14.2663C51.2267 13.9316 51.873 13.7642 52.6188 13.7642C53.2386 13.7642 53.7871 13.8786 54.2644 14.1072C54.745 14.3326 55.1278 14.6525 55.4128 15.0668C55.6979 15.4777 55.8603 15.9583 55.9 16.5085H54.1799C54.1103 16.1406 53.9445 15.834 53.6827 15.5888C53.4242 15.3402 53.0778 15.2159 52.6436 15.2159C52.2757 15.2159 51.9526 15.3153 51.6742 15.5142C51.3958 15.7098 51.1787 15.9915 51.0229 16.3594C50.8704 16.7273 50.7942 17.1681 50.7942 17.6818C50.7942 18.2022 50.8704 18.6496 51.0229 19.0241C51.1754 19.3954 51.3891 19.6821 51.6642 19.8842C51.9426 20.0831 52.2691 20.1825 52.6436 20.1825C52.9088 20.1825 53.1458 20.1328 53.3546 20.0334C53.5667 19.9306 53.744 19.7831 53.8865 19.5909C54.0291 19.3987 54.1268 19.165 54.1799 18.8899H55.9C55.8569 19.4302 55.6979 19.9091 55.4228 20.3267C55.1477 20.741 54.7731 21.0658 54.2992 21.3011C53.8252 21.5331 53.2684 21.6491 52.6287 21.6491ZM62.245 18.2884V13.8636H64.0447V21.5H62.2997V20.1428H62.2202C62.0478 20.5703 61.7644 20.92 61.37 21.1918C60.9789 21.4635 60.4967 21.5994 59.9233 21.5994C59.4228 21.5994 58.9804 21.4884 58.5959 21.2663C58.2147 21.041 57.9164 20.7145 57.701 20.2869C57.4856 19.8561 57.3778 19.3357 57.3778 18.7259V13.8636H59.1776V18.4474C59.1776 18.9313 59.3101 19.3158 59.5753 19.6009C59.8404 19.8859 60.1884 20.0284 60.6193 20.0284C60.8845 20.0284 61.1413 19.9638 61.3899 19.8345C61.6385 19.7053 61.8423 19.513 62.0014 19.2578C62.1638 18.9993 62.245 18.6761 62.245 18.2884ZM65.975 21.5V11.3182H67.7747V15.1264H67.8493C67.9421 14.9408 68.073 14.7436 68.242 14.5348C68.411 14.3227 68.6397 14.142 68.9281 13.9929C69.2164 13.8404 69.5843 13.7642 70.0318 13.7642C70.6217 13.7642 71.1537 13.915 71.6277 14.2166C72.1049 14.5149 72.4828 14.9574 72.7612 15.544C73.0429 16.1274 73.1838 16.8433 73.1838 17.6918C73.1838 18.5303 73.0462 19.2429 72.7711 19.8295C72.496 20.4162 72.1215 20.8636 71.6475 21.1719C71.1736 21.4801 70.6367 21.6342 70.0368 21.6342C69.5993 21.6342 69.2363 21.5613 68.948 21.4155C68.6596 21.2696 68.4276 21.094 68.252 20.8885C68.0796 20.6797 67.9454 20.4825 67.8493 20.2969H67.7449V21.5H65.975ZM67.7399 17.6818C67.7399 18.1757 67.8095 18.6082 67.9487 18.9794C68.0912 19.3506 68.295 19.6406 68.5602 19.8494C68.8287 20.0549 69.1535 20.1577 69.5346 20.1577C69.9324 20.1577 70.2654 20.0516 70.5339 19.8395C70.8024 19.6241 71.0046 19.3307 71.1404 18.9595C71.2797 18.585 71.3493 18.1591 71.3493 17.6818C71.3493 17.2079 71.2813 16.7869 71.1454 16.419C71.0095 16.0511 70.8074 15.7628 70.5389 15.554C70.2704 15.3452 69.9357 15.2408 69.5346 15.2408C69.1502 15.2408 68.8237 15.3419 68.5552 15.544C68.2868 15.7462 68.0829 16.0296 67.9437 16.3942C67.8078 16.7588 67.7399 17.188 67.7399 17.6818ZM78.3132 21.6392C77.5741 21.6392 76.9179 21.5149 76.3445 21.2663C75.7744 21.0178 75.3269 20.678 75.0021 20.2472C74.6806 19.813 74.5215 19.3208 74.5249 18.7706C74.5215 18.343 74.6143 17.9503 74.8033 17.5923C74.9922 17.2344 75.2474 16.9361 75.5689 16.6974C75.8937 16.4555 76.255 16.3014 76.6527 16.2351V16.1655C76.129 16.0495 75.7048 15.7827 75.38 15.3651C75.0585 14.9441 74.8994 14.4586 74.9027 13.9084C74.8994 13.3847 75.0452 12.9174 75.3402 12.5064C75.6352 12.0954 76.0395 11.7723 76.5533 11.5369C77.067 11.2983 77.6536 11.179 78.3132 11.179C78.9661 11.179 79.5478 11.2983 80.0582 11.5369C80.572 11.7723 80.9763 12.0954 81.2713 12.5064C81.5696 12.9174 81.7188 13.3847 81.7188 13.9084C81.7188 14.4586 81.5547 14.9441 81.2266 15.3651C80.9018 15.7827 80.4825 16.0495 79.9688 16.1655V16.2351C80.3665 16.3014 80.7244 16.4555 81.0426 16.6974C81.3641 16.9361 81.6193 17.2344 81.8082 17.5923C82.0005 17.9503 82.0966 18.343 82.0966 18.7706C82.0966 19.3208 81.9342 19.813 81.6094 20.2472C81.2846 20.678 80.8371 21.0178 80.267 21.2663C79.7003 21.5149 79.049 21.6392 78.3132 21.6392ZM78.3132 20.2173C78.6944 20.2173 79.0258 20.1527 79.3075 20.0234C79.5893 19.8909 79.808 19.7053 79.9638 19.4666C80.1196 19.228 80.1991 18.9529 80.2024 18.6413C80.1991 18.3165 80.1146 18.0298 79.9489 17.7812C79.7865 17.5294 79.5627 17.3321 79.2777 17.1896C78.996 17.0471 78.6745 16.9759 78.3132 16.9759C77.9486 16.9759 77.6238 17.0471 77.3388 17.1896C77.0537 17.3321 76.8284 17.5294 76.6626 17.7812C76.5002 18.0298 76.4207 18.3165 76.424 18.6413C76.4207 18.9529 76.4969 19.228 76.6527 19.4666C76.8085 19.7019 77.0272 19.8859 77.3089 20.0185C77.594 20.151 77.9287 20.2173 78.3132 20.2173ZM78.3132 15.5788C78.6248 15.5788 78.8999 15.5159 79.1385 15.3899C79.3804 15.264 79.571 15.0883 79.7102 14.8629C79.8494 14.6375 79.9207 14.3774 79.924 14.0824C79.9207 13.7907 79.8511 13.5355 79.7152 13.3168C79.5793 13.0947 79.3904 12.924 79.1484 12.8047C78.9065 12.6821 78.6281 12.6207 78.3132 12.6207C77.9917 12.6207 77.7083 12.6821 77.4631 12.8047C77.2211 12.924 77.0322 13.0947 76.8963 13.3168C76.7637 13.5355 76.6991 13.7907 76.7024 14.0824C76.6991 14.3774 76.7654 14.6375 76.9013 14.8629C77.0405 15.085 77.2311 15.2607 77.473 15.3899C77.7183 15.5159 77.9983 15.5788 78.3132 15.5788Z" fill="black"/>
</svg>
